<svg width="97" height="78" viewBox="0 0 97 78" fill="none" xmlns="http://www.w3.org/2000/svg">
<path fill-rule="evenodd" clip-rule="evenodd" d="M0 7.69892V11.5777H85.36C73.8934 -0.144665 60.3411 8.40796e-05 59.317 8.40796e-05C59.25 0.00596105 11.6988 8.40796e-05 11.6988 8.40796e-05L11.64 7.69892H0Z" fill="#29292A"/>
<path fill-rule="evenodd" clip-rule="evenodd" d="M11.6988 23.1553H27.2188V65.8809H0V61.9433H11.64L11.6988 23.1553Z" fill="#29292A"/>
<path fill-rule="evenodd" clip-rule="evenodd" d="M97 15.3979H69.84V28.2685C69.84 43.0265 62.1947 54.186 44.3261 54.186H31.04V77.5175H34.9788V65.8811H51.3219C73.2909 65.8811 85.36 47.7807 85.36 32.8526V19.3355H97V15.3979Z" fill="#29292A"/>
<path fill-rule="evenodd" clip-rule="evenodd" d="M11.64 15.3979V19.3355H31.04V50.3659H40.0933C61.8208 50.3659 65.96 40.9952 65.96 24.9774V15.3979H11.64Z" fill="#DB9619"/>
</svg>
