<svg width="76" height="74" viewBox="0 0 76 74" fill="none" xmlns="http://www.w3.org/2000/svg">
<path d="M23.7582 47.3153C23.1504 46.7074 22.1879 46.7074 21.6306 47.3153L7.90257 61.0434C7.29468 61.6512 7.29468 62.6137 7.90257 63.171L8.25717 63.5256C8.56111 63.8295 8.91571 63.9815 9.32097 63.9815C9.72622 63.9815 10.1315 63.8295 10.3848 63.5256L24.1128 49.7975C24.4168 49.4935 24.5688 49.1389 24.5688 48.7337C24.5688 48.3284 24.4168 47.9232 24.1128 47.6699L23.7582 47.3153Z" fill="#DB9619"/>
<path d="M71.1226 50.7092C68.3364 48.0244 64.3852 46.9606 59.2688 47.6191C58.053 46.4033 54.659 42.908 44.5782 32.6753L66.2088 11.0954C66.3608 10.9434 66.4621 10.7914 66.5128 10.5888L69.1469 4.30731C69.4002 3.75008 69.2482 3.09154 68.843 2.63562C68.3871 2.17971 67.7792 2.07839 67.1713 2.28102L60.7885 4.91519C60.5859 4.96585 60.4339 5.11782 60.2819 5.21913L38.3981 27.0523L33.7883 22.4425C31.7113 20.3656 29.4318 18.086 28.368 17.0222C29.7864 12.5138 29.4824 8.81579 27.3548 5.92833C22.897 -0.251829 12.2084 0.00145362 11.7524 0.00145362C11.1446 0.00145362 10.5873 0.406711 10.3847 0.963939C10.1821 1.52117 10.2834 2.17971 10.7393 2.58496L16.0076 7.8533L11.9044 11.9565L6.07885 6.13096C5.6736 5.7257 5.06571 5.57373 4.50848 5.77636C3.95125 5.97899 3.54599 6.4349 3.49534 6.99213C3.44468 7.34673 2.27957 16.0597 7.24396 21.0748C9.92879 23.7596 13.7281 24.8234 18.6418 24.2662C19.7056 25.2793 22.3904 28.0148 24.5687 30.2437C25.3285 31.0036 26.0377 31.7128 26.7469 32.422C26.6456 32.4726 26.4937 32.574 26.443 32.6753L23.0996 36.0186C22.4917 36.6265 22.4917 37.589 23.0996 38.1462L24.0115 39.0581C22.5931 39.2607 21.1747 39.8686 20.1109 40.983L1.97563 59.1183C0.709198 60.3847 0 62.107 0 63.9307C0 65.7543 0.709198 67.4767 1.97563 68.7431L2.27957 69.0471C3.546 70.3135 5.26834 71.0227 7.09199 71.0227C8.91565 71.0227 10.5873 70.3135 11.9044 69.0471C30.9008 50.7598 31.0528 50.5066 31.1541 50.4053C31.8633 49.5441 32.3192 48.5309 32.5218 47.5178L33.0284 48.0244C33.3324 48.3283 33.687 48.4803 34.0922 48.4803C34.4975 48.4803 34.9027 48.3283 35.156 48.0244L38.4994 44.681L49.7453 56.0788C48.8841 62.411 49.9985 67.1221 53.1393 70.1109C55.9761 72.745 59.7247 73.3529 62.5615 73.3529C64.7398 73.3529 66.3101 72.9983 66.4621 72.9477C66.9687 72.8463 67.4246 72.4411 67.5766 71.9345C67.7285 71.4279 67.6272 70.8707 67.222 70.4655L61.903 64.6399L66.6647 59.8781L72.4396 65.7037C72.8449 66.1089 73.4528 66.2609 74.01 66.0583C74.5672 65.8557 74.9725 65.3997 75.0231 64.8425C75.0738 64.4373 76.1883 55.6736 71.1226 50.7092ZM28.8239 48.5309C28.064 49.3414 17.0714 59.9288 9.77682 66.9701C9.06762 67.6793 8.10513 68.0846 7.14265 68.0846C6.18017 68.0846 5.21768 67.6793 4.50848 66.9701L4.20454 66.6662C3.49534 65.957 3.09008 64.9945 3.09008 64.032C3.09008 63.0695 3.49534 62.107 4.20454 61.3978L22.3398 43.2626C23.049 42.5534 24.0115 42.1481 24.9739 42.1481C25.9364 42.1481 26.8989 42.5027 27.6081 43.2626L27.9121 43.5665C27.9627 43.6172 27.9627 43.6172 28.0134 43.6679C28.8239 44.3264 29.3811 45.2382 29.5331 46.1501C29.6851 46.9606 29.4318 47.8217 28.8239 48.5309ZM62.2576 7.65067L64.9424 6.53622L63.8279 9.11973L34.3962 38.4502L32.7751 36.8292L62.2576 7.65067ZM22.3398 23.6077C19.7563 21.0241 19.7563 21.0241 18.9964 21.1255C14.7412 21.7333 11.4992 20.9735 9.42222 18.8965C7.19331 16.6676 6.53476 13.2736 6.43345 10.7408L10.79 15.1479C11.3978 15.7558 12.3603 15.7558 12.9176 15.1479L19.199 8.9171C19.503 8.61316 19.6549 8.25856 19.6549 7.8533C19.6549 7.44804 19.503 7.04279 19.199 6.7895L15.7037 3.29416C18.7431 3.69942 22.8463 4.81388 24.8726 7.65067C26.4937 9.87958 26.595 12.9697 25.1766 16.8196C24.822 17.7314 25.3285 18.2887 26.0377 18.9979L31.61 24.5701C33.2817 26.1912 35.0547 28.0148 36.2198 29.1799L31.9646 33.3845C30.6475 32.0674 28.5706 29.9398 26.7469 28.1161C25.1766 26.4951 23.5555 24.8234 22.3398 23.6077ZM34.0416 44.8836L26.291 37.1331L27.5068 35.9173L35.2573 43.6679L34.0416 44.8836ZM67.7285 56.6361C67.1713 56.0788 66.1581 56.0788 65.5503 56.6361L58.7116 63.5254C58.1543 64.0827 58.1037 65.0452 58.6609 65.6024L62.9668 70.2628C60.6872 70.3135 57.4451 69.9589 55.2162 67.882C52.734 65.5517 51.9235 61.4992 52.8353 55.8256C52.9367 55.3696 52.734 54.8631 52.4301 54.5085L37.6889 39.5646L42.4 34.8535C48.4282 40.983 57.0905 49.7467 57.5971 50.2533C57.9517 50.6585 58.4583 50.8105 58.9648 50.7598C63.4227 50.0507 66.766 50.7598 68.9949 52.8874C71.2745 55.1164 71.9331 58.5104 72.085 61.0432L67.7285 56.6361Z" fill="#DB9619"/>
</svg>
