<svg width="76" height="72" viewBox="0 0 76 72" fill="none" xmlns="http://www.w3.org/2000/svg">
<path d="M73.3672 65.2973C67.2829 57.2445 51.4011 37.739 51.2222 37.5153C51.1774 37.4706 51.1327 37.4258 51.088 37.3811C49.4774 35.86 46.8379 35.5021 44.1984 36.5311C44.1984 36.5311 44.1984 36.5311 44.1536 36.5311C43.5721 36.7548 38.3825 39.1706 32.5666 41.8548L34.1324 31.1626C35.9219 29.0152 35.743 25.7941 33.6403 23.8704L9.34788 1.41215C7.20048 -0.556301 3.80043 -0.466826 1.78724 1.68057L1.7425 1.77005C0.75828 2.79901 0.266167 4.14114 0.310905 5.57273C0.355642 7.00433 0.981967 8.30172 2.01093 9.24121L26.3481 31.6994C27.3771 32.6389 28.6745 33.131 30.0166 33.131C30.285 33.131 30.5087 33.0863 30.7771 33.0863L29.1666 43.5101C22.3665 46.6418 15.7453 49.7286 15.1637 49.9971C15.0295 50.0418 14.9401 50.1313 14.8506 50.2207C13.6874 51.1602 13.1953 52.1892 13.3295 53.2629C13.4637 54.3813 14.269 55.2761 15.7453 55.9471C15.7901 55.9471 15.8348 55.9919 15.8796 55.9919C17.6243 56.6182 64.3303 69.4579 69.5645 70.8895C70.9067 71.2921 72.1593 71.65 73.1883 71.65C74.083 71.65 74.7988 71.3816 75.2462 70.7105C76.3199 69.1447 75.0225 67.4447 73.3672 65.2973ZM28.4955 29.3731L4.15833 6.91486C3.75569 6.51222 3.48727 5.97537 3.44253 5.43852C3.39779 4.85694 3.62148 4.32009 4.02412 3.87271C4.47149 3.42534 5.05308 3.15691 5.6794 3.15691C6.21625 3.15691 6.79784 3.33586 7.20048 3.7385L31.5377 26.1967C31.9403 26.5994 32.2087 27.1362 32.2535 27.6731C32.2982 28.2546 32.0745 28.7915 31.6719 29.2389L31.6271 29.2836C30.8219 30.1784 29.3903 30.2231 28.4955 29.3731ZM70.4145 67.8473C56.188 63.9104 19.1901 53.7103 16.9532 52.9945C16.819 52.905 16.6848 52.8603 16.5954 52.8155C16.6401 52.7708 16.6401 52.7708 16.6848 52.7261C24.4691 49.1023 44.1536 39.9759 45.3616 39.4838C46.7932 38.9469 48.18 38.9916 48.8958 39.618C50.059 41.0496 65.0461 59.4814 70.8619 67.221C71.0409 67.4447 71.3093 67.8026 71.5777 68.1605C71.2646 68.071 70.8619 67.9815 70.4145 67.8473Z" fill="#DB9619"/>
</svg>
