<svg width="73" height="74" viewBox="0 0 73 74" fill="none" xmlns="http://www.w3.org/2000/svg">
<path d="M57.1637 73.71H32.1683V14.0379L56.7237 0L57.1637 73.71ZM34.3686 71.5097H54.9194L54.5674 3.78451L34.3686 15.3141V71.5097Z" fill="#DB9619"/>
<path d="M72.6978 73.71H58.3079V36.1289H72.6978V73.71ZM60.4642 71.5097H70.4535V38.3292H60.4642V71.5097Z" fill="#DB9619"/>
<path d="M31.0682 73.7098H0V25.6113H31.0682V73.7098ZM2.2003 71.5095H28.8679V27.8116H2.2003V71.5095Z" fill="#DB9619"/>
<path d="M51.927 27.0196H37.405V22.0029H51.927V27.0196ZM39.1653 25.2594H50.1668V23.7192H39.1653V25.2594Z" fill="#DB9619"/>
<path d="M68.0332 47.8784H62.9285V40.0894H68.0332V47.8784ZM64.6887 46.1182H66.2729V41.8496H64.6887V46.1182Z" fill="#DB9619"/>
<path d="M9.98933 39.6494H4.88464V31.8604H9.98933V39.6494ZM6.64488 37.8892H8.2291V33.6206H6.64488V37.8892Z" fill="#DB9619"/>
<path d="M18.2625 39.6494H13.2018V31.8604H18.3065V39.6494H18.2625ZM14.962 37.8892H16.5462V33.6206H14.962V37.8892Z" fill="#DB9619"/>
<path d="M26.5796 39.6494H21.5189V31.8604H26.6236V39.6494H26.5796ZM23.2792 37.8892H24.8634V33.6206H23.2792V37.8892Z" fill="#DB9619"/>
<path d="M9.98933 50.6509H4.88464V42.8618H9.98933V50.6509ZM6.64488 48.8906H8.2291V44.6221H6.64488V48.8906Z" fill="#DB9619"/>
<path d="M18.2625 50.6509H13.2018V42.8618H18.3065V50.6509H18.2625ZM14.962 48.8906H16.5462V44.6221H14.962V48.8906Z" fill="#DB9619"/>
<path d="M9.98933 61.6084H4.88464V53.8193H9.98933V61.6084ZM6.64488 59.8482H8.2291V55.5796H6.64488V59.8482Z" fill="#DB9619"/>
<path d="M18.2625 61.6084H13.2018V53.8193H18.3065V61.6084H18.2625ZM14.962 59.8482H16.5462V55.5796H14.962V59.8482Z" fill="#DB9619"/>
<path d="M26.5796 50.6509H21.5189V42.8618H26.6236V50.6509H26.5796ZM23.2792 48.8906H24.8634V44.6221H23.2792V48.8906Z" fill="#DB9619"/>
<path d="M26.5796 61.6084H21.5189V53.8193H26.6236V61.6084H26.5796ZM23.2792 59.8482H24.8634V55.5796H23.2792V59.8482Z" fill="#DB9619"/>
<path d="M68.0332 56.8999H62.9285V49.1108H68.0332V56.8999ZM64.6887 55.1397H66.2729V50.8711H64.6887V55.1397Z" fill="#DB9619"/>
<path d="M68.0332 65.8769H62.9285V58.0879H68.0332V65.8769ZM64.6887 64.1167H66.2729V59.8481H64.6887V64.1167Z" fill="#DB9619"/>
<path d="M51.927 34.1485H37.405V29.1318H51.927V34.1485ZM39.1653 32.3883H50.1668V30.8921H39.1653V32.3883Z" fill="#DB9619"/>
<path d="M51.927 41.3214H37.405V36.2607H51.927V41.3214ZM39.1653 39.5612H50.1668V38.021H39.1653V39.5612Z" fill="#DB9619"/>
<path d="M51.927 48.4503H37.405V43.3896H51.927V48.4503ZM39.1653 46.6901H50.1668V45.1499H39.1653V46.6901Z" fill="#DB9619"/>
<path d="M51.927 55.5797H37.405V50.519H51.927V55.5797ZM39.1653 53.8195H50.1668V52.2793H39.1653V53.8195Z" fill="#DB9619"/>
</svg>
