<svg width="60" height="76" viewBox="0 0 60 76" fill="none" xmlns="http://www.w3.org/2000/svg">
<path d="M58.6493 8.76369C58.3382 8.45256 57.9752 8.29699 57.5603 8.29699H45.9964L38.4773 0.466706C38.4254 0.41485 38.3736 0.362992 38.3217 0.311136L38.2699 0.259281C38.0106 0.103712 37.6994 0 37.3883 0H1.55569C0.67413 0 0 0.67413 0 1.55569V65.8573C0 66.7389 0.67413 67.413 1.55569 67.413H5.70418V74.1543C5.70418 74.5692 5.85975 74.984 6.17088 75.2433C6.48202 75.5544 6.84501 75.71 7.25986 75.71H57.3011C58.1826 75.71 58.8567 75.0359 58.8567 74.1543L59.116 9.85267C59.116 9.43782 58.9605 9.02297 58.6493 8.76369ZM38.8921 5.39304L46.6706 13.4826H38.8921V5.39304ZM3.11137 64.3016V3.11137H35.7808V15.0383C35.7808 15.9198 36.4549 16.594 37.3364 16.594H48.7448V64.3016H3.11137ZM55.7972 72.5986H8.81555V67.413H50.3005C51.182 67.413 51.8562 66.7389 51.8562 65.8573V15.0383C51.8562 14.6234 51.7006 14.2604 51.4413 13.9493L49.0041 11.4084H56.0047L55.7972 72.5986Z" fill="#DB9619"/>
<path d="M9.85268 15.5569H30.0766C30.647 15.5569 31.1137 15.0902 31.1137 14.5198V14.0012C31.1137 13.4308 30.647 12.9641 30.0766 12.9641H9.85268C9.28226 12.9641 8.81555 13.4308 8.81555 14.0012V14.5198C8.81555 15.0902 9.28226 15.5569 9.85268 15.5569Z" fill="#DB9619"/>
<path d="M39.9293 22.2981H9.85268C9.28226 22.2981 8.81555 22.7648 8.81555 23.3352V23.8538C8.81555 24.4242 9.28226 24.8909 9.85268 24.8909H39.9293C40.4997 24.8909 40.9664 24.4242 40.9664 23.8538V23.3352C40.9664 22.7648 40.4997 22.2981 39.9293 22.2981Z" fill="#DB9619"/>
<path d="M39.9293 29.5581H9.85268C9.28226 29.5581 8.81555 30.0248 8.81555 30.5952V31.1138C8.81555 31.6842 9.28226 32.1509 9.85268 32.1509H39.9293C40.4997 32.1509 40.9664 31.6842 40.9664 31.1138V30.5952C40.9664 30.0248 40.4997 29.5581 39.9293 29.5581Z" fill="#DB9619"/>
<path d="M39.9293 36.8179H9.85268C9.28226 36.8179 8.81555 37.2846 8.81555 37.855V38.3736C8.81555 38.944 9.28226 39.4107 9.85268 39.4107H39.9293C40.4997 39.4107 40.9664 38.944 40.9664 38.3736V37.855C40.9664 37.2846 40.4997 36.8179 39.9293 36.8179Z" fill="#DB9619"/>
<path d="M39.9293 44.0776H9.85268C9.28226 44.0776 8.81555 44.5443 8.81555 45.1148V45.6333C8.81555 46.2037 9.28226 46.6704 9.85268 46.6704H39.9293C40.4997 46.6704 40.9664 46.2037 40.9664 45.6333V45.1148C40.9664 44.5443 40.4997 44.0776 39.9293 44.0776Z" fill="#DB9619"/>
<path d="M39.9293 51.3376H9.85268C9.28226 51.3376 8.81555 51.8044 8.81555 52.3748V52.8933C8.81555 53.4637 9.28226 53.9305 9.85268 53.9305H39.9293C40.4997 53.9305 40.9664 53.4637 40.9664 52.8933V52.3748C40.9664 51.8044 40.4997 51.3376 39.9293 51.3376Z" fill="#DB9619"/>
</svg>
